<?xml version="1.0" encoding="utf-8" ?>
<svg baseProfile="tiny" height="99.7865969978" version="1.2" width="270.786600685" xmlns="http://www.w3.org/2000/svg" xmlns:ev="http://www.w3.org/2001/xml-events" xmlns:xlink="http://www.w3.org/1999/xlink"><defs /><g id="paths" stroke="blue"><path d="M 257.889220981,94.8932796258 A 130.500010983 130.500010983 0 0,0 257.889224525 4.89330308562 L 12.8973852379,4.89331725884 A 130.499982637 130.499982637 0 0,0 12.8973816946 94.893293799 L 257.889224525,94.893293799 Z" fill-opacity="0" stroke-linejoin="round" stroke-width="1.0" /></g><g fill="red" id="holes"><circle cx="157.0075" cy="54.0415" r="0.54" stroke-width="0.0" /><circle cx="252.4996" cy="83.5547" r="0.54" stroke-width="0.0" /><circle cx="29.4484" cy="84.6177" r="0.54" stroke-width="0.0" /><circle cx="224.4538" cy="81.4287" r="0.54" stroke-width="0.0" /><circle cx="152.0468" cy="42.098" r="0.54" stroke-width="0.0" /><circle cx="194.9209" cy="77.1768" r="0.54" stroke-width="0.0" /><circle cx="229.8224" cy="19.9524" r="0.54" stroke-width="0.0" /><circle cx="218.4839" cy="23.6728" r="0.54" stroke-width="0.0" /><circle cx="85.787" cy="23.85" r="0.54" stroke-width="0.0" /><circle cx="29.8028" cy="16.8672" r="0.54" stroke-width="0.0" /><circle cx="185.6716" cy="44.5783" r="0.54" stroke-width="0.0" /><circle cx="86.1413" cy="74.8736" r="0.54" stroke-width="0.0" /><circle cx="146.2004" cy="66.724" r="0.54" stroke-width="0.0" /><circle cx="253.2083" cy="15.3461" r="0.54" stroke-width="0.0" /><circle cx="24.8953" cy="67.6098" r="2.8346" stroke-width="0.0" /><circle cx="24.8953" cy="32.1768" r="2.8346" stroke-width="0.0" /><circle cx="60.3283" cy="67.6098" r="2.8346" stroke-width="0.0" /><circle cx="60.3283" cy="32.1768" r="2.8346" stroke-width="0.0" /><circle cx="42.6118" cy="49.8933" r="2.8346" stroke-width="0.0" /><circle cx="60.3283" cy="58.7516" r="1.7717" stroke-width="0.0" /><circle cx="60.3283" cy="49.8933" r="1.7717" stroke-width="0.0" /><circle cx="60.3283" cy="41.035" r="1.7717" stroke-width="0.0" /><circle cx="69.1866" cy="58.7516" r="1.7717" stroke-width="0.0" /><circle cx="69.1866" cy="49.8933" r="1.7717" stroke-width="0.0" /><circle cx="69.1866" cy="41.035" r="1.7717" stroke-width="0.0" /><rect height="1" rx="1.7717" ry="1.7717" width="1" x="-108.7264" y="2.6575" /><rect height="1" rx="1.7717" ry="1.7717" width="1" x="-90.124" y="19.4882" /><rect height="1" rx="1.7717" ry="1.7717" width="1" x="-90.124" y="-15.9449" /><rect height="1" rx="1.7717" ry="1.7717" width="1" x="-90.124" y="-7.0866" /><rect height="1" rx="1.7717" ry="1.7717" width="1" x="-90.124" y="10.6299" /><circle cx="237.2634" cy="19.9524" r="1.5059" stroke-width="0.0" /><circle cx="237.2634" cy="11.0941" r="1.5059" stroke-width="0.0" /><circle cx="116.2594" cy="52.8165" r="0.5315" stroke-width="0.0" /><circle cx="116.2594" cy="47.3244" r="0.5315" stroke-width="0.0" /><circle cx="118.9169" cy="44.7555" r="0.5315" stroke-width="0.0" /><circle cx="113.602" cy="44.7555" r="0.5315" stroke-width="0.0" /><circle cx="108.287" cy="44.7555" r="0.5315" stroke-width="0.0" /><circle cx="102.972" cy="44.7555" r="0.5315" stroke-width="0.0" /><circle cx="97.6571" cy="44.7555" r="0.5315" stroke-width="0.0" /><circle cx="92.3421" cy="44.7555" r="0.5315" stroke-width="0.0" /><circle cx="105.5409" cy="47.3244" r="0.5315" stroke-width="0.0" /><circle cx="110.9445" cy="52.8165" r="0.5315" stroke-width="0.0" /><circle cx="118.9169" cy="55.3854" r="0.5315" stroke-width="0.0" /><circle cx="113.602" cy="55.3854" r="0.5315" stroke-width="0.0" /><circle cx="108.287" cy="55.3854" r="0.5315" stroke-width="0.0" /><circle cx="102.972" cy="55.3854" r="0.5315" stroke-width="0.0" /><circle cx="97.6571" cy="55.3854" r="0.5315" stroke-width="0.0" /><circle cx="92.3421" cy="55.3854" r="0.5315" stroke-width="0.0" /><circle cx="105.5409" cy="52.8165" r="0.5315" stroke-width="0.0" /><circle cx="110.9445" cy="47.3244" r="0.5315" stroke-width="0.0" /><circle cx="118.9169" cy="50.0705" r="0.5315" stroke-width="0.0" /><circle cx="113.602" cy="50.0705" r="0.5315" stroke-width="0.0" /><circle cx="108.287" cy="50.0705" r="0.5315" stroke-width="0.0" /><circle cx="102.972" cy="50.0705" r="0.5315" stroke-width="0.0" /><circle cx="97.6571" cy="50.0705" r="0.5315" stroke-width="0.0" /><circle cx="92.3421" cy="50.0705" r="0.5315" stroke-width="0.0" /><circle cx="237.0862" cy="90.287" r="1.5059" stroke-width="0.0" /><circle cx="237.0862" cy="81.4287" r="1.5059" stroke-width="0.0" /><circle cx="168.8776" cy="19.9524" r="1.4173" stroke-width="0.0" /><circle cx="168.8776" cy="37.6689" r="1.4173" stroke-width="0.0" /><circle cx="245.8908" cy="32.1768" r="2.8346" stroke-width="0.0" /><circle cx="245.8908" cy="67.6098" r="2.8346" stroke-width="0.0" /><circle cx="210.4578" cy="32.1768" r="2.8346" stroke-width="0.0" /><circle cx="210.4578" cy="67.6098" r="2.8346" stroke-width="0.0" /><circle cx="228.1743" cy="49.8933" r="2.8346" stroke-width="0.0" /><circle cx="210.4578" cy="41.035" r="1.7717" stroke-width="0.0" /><circle cx="210.4578" cy="49.8933" r="1.7717" stroke-width="0.0" /><circle cx="210.4578" cy="58.7516" r="1.7717" stroke-width="0.0" /><circle cx="201.5995" cy="41.035" r="1.7717" stroke-width="0.0" /><circle cx="201.5995" cy="49.8933" r="1.7717" stroke-width="0.0" /><circle cx="201.5995" cy="58.7516" r="1.7717" stroke-width="0.0" /><rect height="1" rx="1.7717" ry="1.7717" width="1" x="112.2692" y="2.6575" /><rect height="1" rx="1.7717" ry="1.7717" width="1" x="95.4385" y="-15.9449" /><rect height="1" rx="1.7717" ry="1.7717" width="1" x="95.4385" y="19.4882" /><rect height="1" rx="1.7717" ry="1.7717" width="1" x="95.4385" y="10.6299" /><rect height="1" rx="1.7717" ry="1.7717" width="1" x="95.4385" y="-7.0866" /><circle cx="169.0547" cy="81.2221" r="1.4173" stroke-width="0.0" /><circle cx="169.0547" cy="63.5056" r="1.4173" stroke-width="0.0" /></g><g id="rulers" stroke="black" /></svg>