<?xml version="1.0" encoding="utf-8" ?>
<svg baseProfile="tiny" height="99.7865969978" version="1.2" width="270.786600685" xmlns="http://www.w3.org/2000/svg" xmlns:ev="http://www.w3.org/2001/xml-events" xmlns:xlink="http://www.w3.org/1999/xlink"><defs /><g id="paths" stroke="blue"><path d="M 257.889220981,94.8932796258 A 130.500010983 130.500010983 0 0,0 257.889224525 4.89330308562 L 12.8973852379,4.89331725884 A 130.499982637 130.499982637 0 0,0 12.8973816946 94.893293799 L 257.889224525,94.893293799 Z" fill-opacity="0" stroke-linejoin="round" stroke-width="1.0" /></g><g fill="red" id="holes"><circle cx="126.6236" cy="24.4182" r="2.126" stroke-width="0.0" /><circle cx="86.1413" cy="77.3539" r="2.126" stroke-width="0.0" /><circle cx="126.9779" cy="73.3702" r="2.126" stroke-width="0.0" /><circle cx="107.4012" cy="49.8933" r="2.126" stroke-width="0.0" /><circle cx="103.1492" cy="21.3697" r="2.126" stroke-width="0.0" /><circle cx="33.5232" cy="87.6295" r="2.126" stroke-width="0.0" /><circle cx="103.5035" cy="75.9366" r="2.126" stroke-width="0.0" /><circle cx="172.9524" cy="32.5311" r="2.126" stroke-width="0.0" /><circle cx="85.787" cy="21.3697" r="2.126" stroke-width="0.0" /><circle cx="245.8908" cy="84.0862" r="2.126" stroke-width="0.0" /><circle cx="182.3421" cy="47.2725" r="2.126" stroke-width="0.0" /><circle cx="226.4563" cy="12.5114" r="2.126" stroke-width="0.0" /><circle cx="32.4602" cy="13.9287" r="2.126" stroke-width="0.0" /><circle cx="119.2713" cy="54.1453" r="0.5315" stroke-width="0.0" /><circle cx="124.5862" cy="54.1453" r="0.5315" stroke-width="0.0" /><circle cx="129.9012" cy="54.1453" r="0.5315" stroke-width="0.0" /><circle cx="135.2161" cy="54.1453" r="0.5315" stroke-width="0.0" /><circle cx="140.5311" cy="54.1453" r="0.5315" stroke-width="0.0" /><circle cx="145.8461" cy="54.1453" r="0.5315" stroke-width="0.0" /><circle cx="151.161" cy="54.1453" r="0.5315" stroke-width="0.0" /><circle cx="156.476" cy="54.1453" r="0.5315" stroke-width="0.0" /><circle cx="119.2713" cy="43.5153" r="0.5315" stroke-width="0.0" /><circle cx="124.5862" cy="43.5153" r="0.5315" stroke-width="0.0" /><circle cx="129.9012" cy="43.5153" r="0.5315" stroke-width="0.0" /><circle cx="135.2161" cy="43.5153" r="0.5315" stroke-width="0.0" /><circle cx="140.5311" cy="43.5153" r="0.5315" stroke-width="0.0" /><circle cx="145.8461" cy="43.5153" r="0.5315" stroke-width="0.0" /><circle cx="151.161" cy="43.5153" r="0.5315" stroke-width="0.0" /><circle cx="156.476" cy="43.5153" r="0.5315" stroke-width="0.0" /><circle cx="119.2713" cy="48.8303" r="0.5315" stroke-width="0.0" /><circle cx="124.5862" cy="48.8303" r="0.5315" stroke-width="0.0" /><circle cx="129.9012" cy="48.8303" r="0.5315" stroke-width="0.0" /><circle cx="135.2161" cy="48.8303" r="0.5315" stroke-width="0.0" /><circle cx="140.5311" cy="48.8303" r="0.5315" stroke-width="0.0" /><circle cx="145.8461" cy="48.8303" r="0.5315" stroke-width="0.0" /><circle cx="151.161" cy="48.8303" r="0.5315" stroke-width="0.0" /><circle cx="156.476" cy="48.8303" r="0.5315" stroke-width="0.0" /><circle cx="24.8953" cy="67.6098" r="2.8346" stroke-width="0.0" /><circle cx="24.8953" cy="32.1768" r="2.8346" stroke-width="0.0" /><circle cx="60.3283" cy="67.6098" r="2.8346" stroke-width="0.0" /><circle cx="60.3283" cy="32.1768" r="2.8346" stroke-width="0.0" /><circle cx="42.6118" cy="49.8933" r="2.8346" stroke-width="0.0" /><circle cx="60.3283" cy="58.7516" r="1.7717" stroke-width="0.0" /><circle cx="60.3283" cy="49.8933" r="1.7717" stroke-width="0.0" /><circle cx="60.3283" cy="41.035" r="1.7717" stroke-width="0.0" /><circle cx="69.1866" cy="58.7516" r="1.7717" stroke-width="0.0" /><circle cx="69.1866" cy="49.8933" r="1.7717" stroke-width="0.0" /><circle cx="69.1866" cy="41.035" r="1.7717" stroke-width="0.0" /><rect height="1" rx="1.7717" ry="1.7717" width="1" x="-108.7264" y="2.6575" /><rect height="1" rx="1.7717" ry="1.7717" width="1" x="-90.124" y="19.4882" /><rect height="1" rx="1.7717" ry="1.7717" width="1" x="-90.124" y="-15.9449" /><rect height="1" rx="1.7717" ry="1.7717" width="1" x="-90.124" y="-7.0866" /><rect height="1" rx="1.7717" ry="1.7717" width="1" x="-90.124" y="10.6299" /><circle cx="245.8908" cy="32.1768" r="2.8346" stroke-width="0.0" /><circle cx="245.8908" cy="67.6098" r="2.8346" stroke-width="0.0" /><circle cx="210.4578" cy="32.1768" r="2.8346" stroke-width="0.0" /><circle cx="210.4578" cy="67.6098" r="2.8346" stroke-width="0.0" /><circle cx="228.1743" cy="49.8933" r="2.8346" stroke-width="0.0" /><circle cx="210.4578" cy="41.035" r="1.7717" stroke-width="0.0" /><circle cx="210.4578" cy="49.8933" r="1.7717" stroke-width="0.0" /><circle cx="210.4578" cy="58.7516" r="1.7717" stroke-width="0.0" /><circle cx="201.5995" cy="41.035" r="1.7717" stroke-width="0.0" /><circle cx="201.5995" cy="49.8933" r="1.7717" stroke-width="0.0" /><circle cx="201.5995" cy="58.7516" r="1.7717" stroke-width="0.0" /><rect height="1" rx="1.7717" ry="1.7717" width="1" x="112.2692" y="2.6575" /><rect height="1" rx="1.7717" ry="1.7717" width="1" x="95.4385" y="-15.9449" /><rect height="1" rx="1.7717" ry="1.7717" width="1" x="95.4385" y="19.4882" /><rect height="1" rx="1.7717" ry="1.7717" width="1" x="95.4385" y="10.6299" /><rect height="1" rx="1.7717" ry="1.7717" width="1" x="95.4385" y="-7.0866" /></g><g id="rulers" stroke="black" /></svg>